<svg width="80" height="97" viewBox="0 0 80 97" fill="none" xmlns="http://www.w3.org/2000/svg">
<path d="M64.9899 26.6301L39.9999 50.9901L15.0099 26.6301C14.5634 26.194 13.964 25.9498 13.3399 25.9498C12.7158 25.9498 12.1164 26.194 11.6699 26.6301C11.4537 26.8419 11.282 27.0947 11.1647 27.3738C11.0475 27.6528 10.9871 27.9524 10.9871 28.2551C10.9871 28.5578 11.0475 28.8574 11.1647 29.1364C11.282 29.4154 11.4537 29.6683 11.6699 29.8801L38.2549 55.8001C38.7218 56.2552 39.3479 56.5098 39.9999 56.5098C40.6519 56.5098 41.278 56.2552 41.7449 55.8001L68.3299 29.8851C68.5476 29.6731 68.7207 29.4197 68.8388 29.1397C68.957 28.8597 69.0178 28.559 69.0178 28.2551C69.0178 27.9512 68.957 27.6504 68.8388 27.3705C68.7207 27.0905 68.5476 26.8371 68.3299 26.6251C67.8834 26.189 67.284 25.9448 66.6599 25.9448C66.0358 25.9448 65.4364 26.189 64.9899 26.6251V26.6301Z" fill="#D2D2D2"/>
<path d="M64.9899 43.63L39.9999 67.99L15.0099 43.63C14.5634 43.1939 13.964 42.9497 13.3399 42.9497C12.7158 42.9497 12.1164 43.1939 11.6699 43.63C11.4537 43.8418 11.282 44.0946 11.1647 44.3736C11.0475 44.6527 10.9871 44.9523 10.9871 45.255C10.9871 45.5576 11.0475 45.8573 11.1647 46.1363C11.282 46.4153 11.4537 46.6681 11.6699 46.88L38.2549 72.8C38.7218 73.255 39.3479 73.5097 39.9999 73.5097C40.6519 73.5097 41.278 73.255 41.7449 72.8L68.3299 46.885C68.5476 46.673 68.7207 46.4195 68.8388 46.1396C68.957 45.8596 69.0178 45.5588 69.0178 45.255C69.0178 44.9511 68.957 44.6503 68.8388 44.3703C68.7207 44.0904 68.5476 43.8369 68.3299 43.625C67.8834 43.1889 67.284 42.9447 66.6599 42.9447C66.0358 42.9447 65.4364 43.1889 64.9899 43.625V43.63Z" fill="#D2D2D2"/>
</svg>
