<svg width="49" height="48" viewBox="0 0 49 48" fill="none" xmlns="http://www.w3.org/2000/svg">
<path d="M34.109 16.551C35.3019 16.551 36.269 15.5839 36.269 14.391C36.269 13.198 35.3019 12.231 34.109 12.231C32.916 12.231 31.949 13.198 31.949 14.391C31.949 15.5839 32.916 16.551 34.109 16.551Z" fill="#D2D2D2"/>
<path d="M24.5001 14.7571C22.672 14.7571 20.885 15.2992 19.3649 16.3148C17.8449 17.3304 16.6602 18.774 15.9607 20.4629C15.2611 22.1519 15.078 24.0103 15.4347 25.8033C15.7913 27.5963 16.6716 29.2432 17.9643 30.5359C19.257 31.8285 20.9039 32.7088 22.6969 33.0655C24.4898 33.4221 26.3483 33.2391 28.0372 32.5395C29.7262 31.8399 31.1697 30.6552 32.1854 29.1352C33.201 27.6152 33.7431 25.8282 33.7431 24.0001C33.7431 21.5487 32.7693 19.1977 31.0359 17.4643C29.3025 15.7309 26.9515 14.7571 24.5001 14.7571ZM24.5001 30.0001C23.3134 30.0001 22.1534 29.6482 21.1667 28.9889C20.18 28.3296 19.4109 27.3925 18.9568 26.2962C18.5027 25.1998 18.3839 23.9934 18.6154 22.8295C18.8469 21.6657 19.4183 20.5966 20.2574 19.7574C21.0966 18.9183 22.1657 18.3469 23.3295 18.1154C24.4934 17.8839 25.6998 18.0027 26.7962 18.4568C27.8925 18.9109 28.8296 19.68 29.4889 20.6667C30.1482 21.6534 30.5001 22.8134 30.5001 24.0001C30.5001 25.5914 29.8679 27.1175 28.7427 28.2427C27.6175 29.3679 26.0914 30.0001 24.5001 30.0001Z" fill="#D2D2D2"/>
<path d="M24.5 9.243C29.306 9.243 29.876 9.261 31.7735 9.348C32.9148 9.36155 34.0452 9.5711 35.1155 9.9675C35.892 10.267 36.5972 10.7258 37.1857 11.3143C37.7742 11.9028 38.233 12.608 38.5325 13.3845C38.9289 14.4548 39.1385 15.5852 39.152 16.7265C39.239 18.624 39.257 19.194 39.257 24.0015C39.257 28.809 39.239 29.376 39.152 31.2735C39.1385 32.4148 38.9289 33.5452 38.5325 34.6155C38.233 35.392 37.7742 36.0972 37.1857 36.6857C36.5972 37.2742 35.892 37.733 35.1155 38.0325C34.0452 38.4289 32.9148 38.6385 31.7735 38.652C29.876 38.739 29.306 38.757 24.5 38.757C19.694 38.757 19.124 38.739 17.2265 38.652C16.0852 38.6385 14.9548 38.4289 13.8845 38.0325C13.108 37.733 12.4028 37.2742 11.8143 36.6857C11.2258 36.0972 10.767 35.392 10.4675 34.6155C10.0711 33.5452 9.86155 32.4148 9.848 31.2735C9.761 29.376 9.743 28.806 9.743 24C9.743 19.194 9.761 18.624 9.848 16.7265C9.86155 15.5852 10.0711 14.4548 10.4675 13.3845C10.767 12.608 11.2258 11.9028 11.8143 11.3143C12.4028 10.7258 13.108 10.267 13.8845 9.9675C14.9548 9.5711 16.0852 9.36155 17.2265 9.348C19.124 9.261 19.694 9.243 24.5 9.243ZM24.5 6C19.6115 6 18.998 6.021 17.078 6.108C15.5852 6.13814 14.1082 6.42115 12.71 6.945C11.5141 7.40745 10.428 8.11467 9.52133 9.02133C8.61467 9.92799 7.90745 11.0141 7.445 12.21C6.92099 13.6087 6.63798 15.0862 6.608 16.5795C6.521 18.4995 6.5 19.11 6.5 24C6.5 28.89 6.521 29.502 6.608 31.422C6.63814 32.9148 6.92115 34.3918 7.445 35.79C7.90745 36.9859 8.61467 38.072 9.52133 38.9787C10.428 39.8853 11.5141 40.5926 12.71 41.055C14.1087 41.579 15.5862 41.862 17.0795 41.892C18.9995 41.979 19.6115 42 24.5 42C29.3885 42 30.002 41.979 31.922 41.892C33.4153 41.862 34.8928 41.579 36.2915 41.055C37.4874 40.5926 38.5735 39.8853 39.4802 38.9787C40.3868 38.072 41.0941 36.9859 41.5565 35.79C42.08 34.3912 42.3625 32.9138 42.392 31.4205C42.479 29.5005 42.5 28.89 42.5 24C42.5 19.11 42.479 18.498 42.392 16.578C42.3619 15.0852 42.0788 13.6082 41.555 12.21C41.0926 11.0141 40.3853 9.92799 39.4787 9.02133C38.572 8.11467 37.4859 7.40745 36.29 6.945C34.8912 6.4215 33.4138 6.13899 31.9205 6.1095C30.0005 6.0195 29.39 6 24.5 6Z" fill="#D2D2D2"/>
</svg>
