<svg width="47" height="47" viewBox="0 0 47 47" fill="none" xmlns="http://www.w3.org/2000/svg">
<path d="M37.3063 9.61537C35.5109 7.80181 33.3724 6.36389 31.0154 5.38547C28.6585 4.40705 26.1303 3.90773 23.5784 3.91662C12.8859 3.91662 4.17132 12.6312 4.17132 23.3237C4.17132 26.7508 5.07215 30.08 6.75632 33.0175L4.01465 43.0833L14.2959 40.3808C17.1355 41.9279 20.3276 42.7504 23.5784 42.7504C34.2709 42.7504 42.9855 34.0358 42.9855 23.3433C42.9855 18.1537 40.9684 13.2775 37.3063 9.61537V9.61537ZM23.5784 39.4604C20.6801 39.4604 17.8405 38.677 15.3534 37.2083L14.7659 36.8558L8.6559 38.4616L10.2813 32.5083L9.88965 31.9012C8.2794 29.3299 7.42438 26.3576 7.42215 23.3237C7.42215 14.4329 14.668 7.18704 23.5588 7.18704C27.8671 7.18704 31.9209 8.8712 34.9563 11.9262C36.4593 13.4223 37.6504 15.2018 38.4605 17.1617C39.2707 19.1215 39.6838 21.2226 39.6759 23.3433C39.7151 32.2341 32.4692 39.4604 23.5784 39.4604V39.4604ZM32.4301 27.397C31.9405 27.162 29.5513 25.987 29.1205 25.8108C28.6701 25.6541 28.3567 25.5758 28.0238 26.0458C27.6909 26.5354 26.7705 27.632 26.4963 27.9454C26.2221 28.2783 25.9284 28.3175 25.4388 28.0629C24.9492 27.8279 23.3826 27.2991 21.5417 25.6541C20.0926 24.3616 19.133 22.7754 18.8392 22.2858C18.5651 21.7962 18.8001 21.5416 19.0546 21.287C19.2701 21.0716 19.5442 20.7191 19.7792 20.445C20.0142 20.1708 20.1121 19.9554 20.2688 19.642C20.4255 19.3091 20.3471 19.035 20.2296 18.8C20.1121 18.565 19.133 16.1758 18.7413 15.1966C18.3496 14.2566 17.9384 14.3741 17.6446 14.3545H16.7046C16.3717 14.3545 15.8626 14.472 15.4121 14.9616C14.9813 15.4512 13.728 16.6262 13.728 19.0154C13.728 21.4045 15.4709 23.7154 15.7059 24.0287C15.9409 24.3616 19.133 29.2575 23.9896 31.3529C25.1451 31.862 26.0459 32.1558 26.7509 32.3712C27.9063 32.7433 28.9638 32.6845 29.8059 32.567C30.7459 32.43 32.6846 31.392 33.0763 30.2562C33.4876 29.1204 33.4876 28.1608 33.3505 27.9454C33.2134 27.73 32.9196 27.632 32.4301 27.397V27.397Z" fill="#D2D2D2"/>
</svg>
